<svg width="30" height="30" viewBox="0 0 30 30" fill="none" xmlns="http://www.w3.org/2000/svg">
<path d="M23.016 7.036H18.462V6.277C18.462 5.02161 17.4404 4 16.185 4H13.149C11.8937 4 10.872 5.02161 10.872 6.277V7.036H6.31805C5.48087 7.036 4.80005 7.71682 4.80005 8.554V9.313C4.80005 9.73197 5.14008 10.072 5.55905 10.072H23.775C24.194 10.072 24.534 9.73197 24.534 9.313V8.554C24.534 7.71682 23.8532 7.036 23.016 7.036ZM12.39 6.277C12.39 5.85879 12.7308 5.518 13.149 5.518H16.185C16.6033 5.518 16.944 5.85879 16.944 6.277V7.036H12.39V6.277Z" fill="#FF0000"/>
<path d="M7.07715 11.59V22.975C7.07715 24.2304 8.09876 25.252 9.35415 25.252H19.9801C21.2355 25.252 22.2571 24.2304 22.2571 22.975V11.59H7.07715ZM17.4808 19.4024C17.7775 19.6992 17.7775 20.1789 17.4808 20.4756C17.184 20.7724 16.7043 20.7724 16.4075 20.4756L14.6671 18.7353L12.9268 20.4756C12.63 20.7724 12.1503 20.7724 11.8535 20.4756C11.5568 20.1789 11.5568 19.6992 11.8535 19.4024L13.5939 17.662L11.8535 15.9216C11.5568 15.6249 11.5568 15.1452 11.8535 14.8484C12.1503 14.5516 12.63 14.5516 12.9268 14.8484L14.6671 16.5888L16.4075 14.8484C16.7043 14.5516 17.184 14.5516 17.4808 14.8484C17.7775 15.1452 17.7775 15.6249 17.4808 15.9216L15.7404 17.662L17.4808 19.4024Z" fill="#FF0000"/>
</svg>
