<svg width="20" height="20" viewBox="0 0 20 20" fill="none" xmlns="http://www.w3.org/2000/svg">
<path d="M1.25 0.485718C0.918479 0.485718 0.600537 0.606126 0.366116 0.820453C0.131696 1.03478 0 1.32547 0 1.62857C0 1.93168 0.131696 2.22237 0.366116 2.4367C0.600537 2.65102 0.918479 2.77143 1.25 2.77143H2.775L3.15625 4.168C3.16004 4.18408 3.1642 4.20009 3.16875 4.216L4.86625 10.4217L3.75 11.4411C2.175 12.8811 3.29 15.3429 5.5175 15.3429H16.25C16.5815 15.3429 16.8995 15.2225 17.1339 15.0081C17.3683 14.7938 17.5 14.5031 17.5 14.2C17.5 13.8969 17.3683 13.6062 17.1339 13.3919C16.8995 13.1776 16.5815 13.0571 16.25 13.0571H5.5175L6.7675 11.9143H15C15.2321 11.9142 15.4595 11.855 15.6569 11.7434C15.8543 11.6318 16.0138 11.4721 16.1175 11.2823L19.8675 4.42515C19.9627 4.25095 20.0077 4.0574 19.9981 3.86287C19.9885 3.66833 19.9247 3.47926 19.8127 3.3136C19.7008 3.14793 19.5444 3.01117 19.3584 2.91628C19.1724 2.8214 18.963 2.77154 18.75 2.77143H5.35L4.9625 1.35086C4.89479 1.10372 4.73869 0.884356 4.51901 0.72761C4.29933 0.570863 4.02866 0.485724 3.75 0.485718H1.25ZM17.5 18.2C17.5 18.6547 17.3025 19.0907 16.9508 19.4122C16.5992 19.7337 16.1223 19.9143 15.625 19.9143C15.1277 19.9143 14.6508 19.7337 14.2992 19.4122C13.9475 19.0907 13.75 18.6547 13.75 18.2C13.75 17.7453 13.9475 17.3093 14.2992 16.9878C14.6508 16.6663 15.1277 16.4857 15.625 16.4857C16.1223 16.4857 16.5992 16.6663 16.9508 16.9878C17.3025 17.3093 17.5 17.7453 17.5 18.2ZM5.625 19.9143C6.12228 19.9143 6.59919 19.7337 6.95083 19.4122C7.30246 19.0907 7.5 18.6547 7.5 18.2C7.5 17.7453 7.30246 17.3093 6.95083 16.9878C6.59919 16.6663 6.12228 16.4857 5.625 16.4857C5.12772 16.4857 4.65081 16.6663 4.29917 16.9878C3.94754 17.3093 3.75 17.7453 3.75 18.2C3.75 18.6547 3.94754 19.0907 4.29917 19.4122C4.65081 19.7337 5.12772 19.9143 5.625 19.9143Z" fill="#2595D4"/>
</svg>
