<svg width="100" height="100" viewBox="0 0 100 100" fill="none" xmlns="http://www.w3.org/2000/svg">
<rect width="100" height="100" fill="white"/>
<path fill-rule="evenodd" clip-rule="evenodd" d="M81.0446 39.419C81.6134 38.6041 82.2602 37.6769 82.2602 37.1281C82.2602 36.5792 81.6157 35.6559 81.0446 34.8402C80.3038 33.7799 79.4633 32.5794 79.171 31.1511C78.8707 29.6877 79.1933 28.241 79.4761 26.9642C79.6697 26.1015 79.9071 25.0308 79.735 24.6245C79.5637 24.2198 78.5942 23.6303 77.8869 23.2002C76.7844 22.531 75.5353 21.7726 74.7139 20.557C73.8862 19.3326 73.6536 17.8851 73.4481 16.6067C73.3199 15.8037 73.143 14.7028 72.8491 14.4103C72.5567 14.1156 71.455 13.9396 70.6513 13.8105C69.3728 13.6042 67.927 13.3724 66.7018 12.5463C65.4854 11.7234 64.7278 10.476 64.0586 9.37335C63.6277 8.66596 63.0398 7.6949 62.6343 7.52523C62.2257 7.35396 61.1542 7.59294 60.2932 7.78412C59.0162 8.0685 57.5719 8.38873 56.1063 8.08922C54.678 7.79687 53.476 6.95804 52.4172 6.21561C51.6015 5.64444 50.6758 5 50.1293 5C49.5828 5 48.6572 5.64446 47.8414 6.21561C46.7811 6.95645 45.5806 7.79607 44.1523 8.08922C42.6889 8.38875 41.2416 8.06691 39.9654 7.78412C39.1019 7.59214 38.0289 7.35315 37.6243 7.52523C37.2196 7.6965 36.6317 8.66598 36.2 9.37335C35.5324 10.4758 34.7732 11.7249 33.5584 12.5463C32.3325 13.3724 30.8851 13.6058 29.6081 13.8105C28.8043 13.9412 27.7026 14.118 27.4103 14.4103C27.1156 14.7043 26.9396 15.8044 26.8105 16.6081C26.6058 17.8851 26.3716 19.334 25.5447 20.5576C24.7242 21.7716 23.4744 22.5308 22.3718 23.2008C21.6644 23.6294 20.6949 24.218 20.5236 24.6227C20.3508 25.0298 20.5898 26.1028 20.7801 26.9647C21.0645 28.2416 21.3864 29.6881 21.0868 31.1516C20.7953 32.5799 19.9557 33.7827 19.2156 34.8423C18.6468 35.658 18 36.5813 18 37.1302C18 37.6782 18.6445 38.6007 19.2156 39.4181C19.9564 40.4776 20.7969 41.6797 21.0892 43.1088C21.3895 44.5714 21.0669 46.0189 20.7841 47.2949C20.5929 48.1576 20.3555 49.2283 20.5268 49.636C20.6981 50.0407 21.6676 50.6286 22.3749 51.0588C23.4774 51.7279 24.7265 52.4863 25.5479 53.7019C26.3756 54.9263 26.6082 56.3738 26.8137 57.6522C26.9443 58.456 27.1188 59.5577 27.4135 59.85C27.7059 60.1447 28.8076 60.3208 29.6099 60.4498C29.8369 60.4857 30.0711 60.5255 30.3077 60.5661C30.3133 60.5669 30.318 60.5661 30.3228 60.5669C30.3451 60.5701 30.3698 60.5773 30.3913 60.5813C30.6287 60.6259 30.8677 60.6697 31.1091 60.7254C31.121 60.7278 31.1314 60.7302 31.1425 60.7334C31.3847 60.7884 31.6261 60.8561 31.8658 60.9302C31.9041 60.9421 31.9431 60.9533 31.9822 60.966C32.2307 61.0465 32.4753 61.1421 32.7166 61.2512C32.7549 61.2671 32.7923 61.287 32.8297 61.3046C33.0791 61.4233 33.3228 61.5555 33.5578 61.7124C33.8606 61.9188 34.1362 62.1506 34.3887 62.3999C35.1447 63.1495 35.6975 64.0592 36.1994 64.8868C36.6279 65.5942 37.2166 66.5637 37.6221 66.735C38.03 66.9062 39.1022 66.6672 39.9632 66.4761C40.1528 66.4338 40.3504 66.3908 40.5479 66.3494C40.6133 66.3367 40.677 66.3239 40.7447 66.3096C40.9215 66.2721 41.1 66.2395 41.2816 66.2084C41.3286 66.2004 41.3724 66.1925 41.4194 66.1837C41.6353 66.1487 41.8528 66.1208 42.0742 66.0977C42.1324 66.0929 42.1897 66.0897 42.2479 66.0833C42.4271 66.0682 42.6071 66.0586 42.7864 66.0563C42.8286 66.0555 42.87 66.0491 42.9122 66.0491C42.9345 66.0491 42.9576 66.0515 42.9799 66.0515C43.1034 66.0523 43.2269 66.0594 43.352 66.0674C43.4221 66.0706 43.493 66.0722 43.5655 66.0802C43.7598 66.1001 43.9558 66.1279 44.1525 66.1678C45.5809 66.4617 46.7828 67.299 47.8433 68.0406C47.9166 68.0916 47.9899 68.1434 48.0647 68.1943L48.1603 68.2621C48.8884 68.7655 49.6516 69.2562 50.1295 69.2562C50.5971 69.2562 51.3388 68.7846 52.0533 68.2923L52.4142 68.0414C52.6802 67.8558 52.9551 67.6646 53.2395 67.4774C53.7485 67.1404 54.295 66.821 54.8789 66.5677C54.945 66.5398 55.0103 66.5071 55.078 66.48C55.0987 66.4721 55.1202 66.4657 55.1402 66.4577C55.4516 66.3367 55.7719 66.2355 56.1072 66.1678C56.2172 66.1455 56.3239 66.1343 56.4339 66.1176C57.7841 65.9216 59.1121 66.2108 60.2959 66.4729C61.1546 66.6641 62.2277 66.903 62.637 66.7302C62.7884 66.6664 62.966 66.4904 63.1508 66.257C63.4599 65.8691 63.7897 65.325 64.0573 64.8821C64.6166 63.9628 65.2554 62.9535 66.1523 62.1624C66.3292 62.0063 66.5004 61.8446 66.7012 61.7092C66.933 61.553 67.1767 61.4224 67.4213 61.3045C67.4635 61.2846 67.5049 61.2623 67.5472 61.2424C67.7846 61.1348 68.0259 61.0416 68.2705 60.9627C68.3135 60.9484 68.3557 60.9357 68.3987 60.9229C68.6329 60.8504 68.8695 60.7851 69.1045 60.7317C69.1205 60.7285 69.1372 60.7238 69.1523 60.7198C69.3889 60.6664 69.6207 60.6218 69.8541 60.5796C69.8812 60.5748 69.9091 60.5676 69.937 60.5636C69.9441 60.5628 69.9489 60.5636 69.9545 60.5628C70.1911 60.5222 70.4253 60.4816 70.6523 60.445C71.4553 60.3143 72.5562 60.1375 72.8501 59.8451C73.1424 59.5528 73.3201 58.4527 73.4491 57.6488C73.6538 56.3702 73.8873 54.9228 74.7149 53.6984C75.5354 52.4828 76.7852 51.7245 77.8879 51.0553C78.5953 50.6267 79.5647 50.038 79.736 49.6334C79.9073 49.2247 79.6683 48.1533 79.4771 47.2914C79.1927 46.0145 78.8709 44.5679 79.172 43.1045C79.466 41.6794 80.3032 40.4781 81.0448 39.4187L81.0446 39.419ZM50.1308 60.6033C37.1892 60.6033 26.6604 50.0738 26.6604 37.133C26.6604 24.1913 37.1892 13.6626 50.1308 13.6626C63.0724 13.6626 73.6011 24.1913 73.6011 37.133C73.6011 50.0738 63.0724 60.6033 50.1308 60.6033ZM50.1308 18.1858C39.6834 18.1858 31.1836 26.6856 31.1836 37.133C31.1836 47.5803 39.6834 56.0785 50.1308 56.0785C60.5781 56.0785 69.078 47.5787 69.078 37.1313C69.0772 26.6846 60.5781 18.1858 50.1308 18.1858V18.1858ZM59.1786 32.535L49.6146 44.3851C49.2347 44.8567 48.6802 45.1562 48.0764 45.2152C48.0015 45.2232 47.9274 45.2256 47.8542 45.2256C47.3276 45.2256 46.8138 45.0415 46.4067 44.7014L40.1709 39.5067C39.211 38.7061 39.0812 37.2793 39.8818 36.3211C40.6831 35.3612 42.1075 35.2329 43.0674 36.0311L47.5387 39.7592L55.6584 29.6964C56.4439 28.7246 57.8666 28.5716 58.8401 29.3571C59.8112 30.1385 59.9618 31.5636 59.1787 32.5347L59.1786 32.535ZM68.8844 65.8001L76.7366 91.4627L70.0044 87.886C68.8995 87.3012 67.5326 87.7171 66.9455 88.8228L63.3679 95.5533L55.9006 71.1489C55.9476 71.1195 55.9946 71.086 56.0408 71.0581C56.0679 71.0422 56.0958 71.0231 56.122 71.0079C56.2726 70.9171 56.4184 70.8367 56.5554 70.7713C56.5785 70.7594 56.6024 70.7514 56.6255 70.7403C56.7657 70.6773 56.8971 70.6264 57.0158 70.6017C57.0947 70.5857 57.1999 70.5889 57.297 70.5857C57.826 70.5706 58.574 70.7267 59.3156 70.8924C60.8833 71.2421 62.6613 71.6356 64.3996 70.902C64.6179 70.8088 64.825 70.7028 65.0218 70.5849C65.8 70.1173 66.4071 69.4697 66.9129 68.7878C67.3 68.2684 67.6282 67.7275 67.9278 67.2336C67.9724 67.1611 68.0154 67.0894 68.0608 67.0153C68.0751 66.993 68.0887 66.9699 68.103 66.9476C68.1365 66.8943 68.1707 66.8401 68.2018 66.7867C68.2528 66.7055 68.3046 66.6226 68.3556 66.5422C68.3763 66.5111 68.3954 66.4792 68.4153 66.449C68.4838 66.3438 68.5531 66.2419 68.6216 66.1447C68.6415 66.1168 68.6614 66.0913 68.6814 66.0634C68.7371 65.9877 68.7921 65.9168 68.8455 65.8499C68.8566 65.834 68.871 65.8165 68.8845 65.7997L68.8844 65.8001ZM44.2354 71.0696C44.2752 71.0943 44.3166 71.123 44.3588 71.1485L36.8915 95.5549L33.314 88.8228C32.9061 88.0572 32.1238 87.6215 31.3153 87.6215C30.956 87.6215 30.5936 87.7067 30.255 87.886L23.5245 91.4635L31.3766 65.8009C31.391 65.8168 31.4045 65.8344 31.4188 65.8511C31.4722 65.9172 31.5272 65.9889 31.5822 66.0646C31.6021 66.0925 31.622 66.118 31.6427 66.1474C31.7104 66.2454 31.7805 66.3466 31.849 66.4517C31.8673 66.4812 31.8872 66.5123 31.9072 66.5418C31.9605 66.627 32.0155 66.7106 32.0689 66.7983C32.0944 66.8405 32.1199 66.8819 32.1461 66.9233C32.2099 67.0285 32.2752 67.1328 32.3357 67.2356C32.4345 67.3989 32.5365 67.5678 32.6424 67.7366C33.3849 68.9308 34.3312 70.2548 35.8631 70.9016C37.6021 71.6361 39.3776 71.2418 40.9471 70.8921C41.8226 70.6977 42.7267 70.4962 43.2454 70.6021C43.3609 70.6252 43.4939 70.677 43.6325 70.7399C43.658 70.7519 43.6827 70.7622 43.7098 70.7734C43.8436 70.8371 43.9846 70.9152 44.132 71.0044C44.1647 71.0251 44.2005 71.0474 44.2356 71.0705L44.2354 71.0696Z" fill="#A4A4A4"/>
</svg>
