<svg width="100" height="100" viewBox="0 0 100 100" fill="none" xmlns="http://www.w3.org/2000/svg">
<rect width="100" height="100" fill="white"/>
<path fill-rule="evenodd" clip-rule="evenodd" d="M48.7144 74.2857C49.6078 74.2857 50.3334 73.5607 50.3334 72.6667C50.3334 71.7733 49.6078 71.0476 48.7144 71.0476H13.0954C12.202 71.0476 11.4763 71.7726 11.4763 72.6667C11.4763 73.5607 12.202 74.2857 13.0954 74.2857" fill="#A4A4A4"/>
<path fill-rule="evenodd" clip-rule="evenodd" d="M79.4763 64.5714C80.3696 64.5714 81.0953 65.2964 81.0953 66.1905C81.0953 67.0845 80.3696 67.8095 79.4763 67.8095V72.6666C79.4763 73.5607 78.7506 74.2857 77.8572 74.2857C76.9639 74.2857 76.2382 73.5607 76.2382 72.6666V67.8095C75.3448 67.8095 74.6191 67.0845 74.6191 66.1905C74.6191 65.2971 75.3441 64.5714 76.2382 64.5714" fill="#A4A4A4"/>
<path fill-rule="evenodd" clip-rule="evenodd" d="M56.8099 72.6667C56.8099 73.5607 56.0849 74.2857 55.1908 74.2857C54.2975 74.2857 53.5718 73.5607 53.5718 72.6667C53.5718 71.7733 54.2975 71.0476 55.1908 71.0476C56.0849 71.0476 56.8099 71.7726 56.8099 72.6667Z" fill="#A4A4A4"/>
<path fill-rule="evenodd" clip-rule="evenodd" d="M8.23809 72.6667C8.23809 73.5607 7.51241 74.2857 6.61905 74.2857C5.72496 74.2857 5 73.5607 5 72.6667C5 71.7733 5.72496 71.0476 6.61905 71.0476C7.51241 71.0476 8.23809 71.7726 8.23809 72.6667Z" fill="#A4A4A4"/>
<path fill-rule="evenodd" clip-rule="evenodd" d="M60.0476 67.8095H13.0952C10.9485 67.8095 8.89071 66.9566 7.37214 65.4394C5.85356 63.9201 5 61.8608 5 59.7143V24.0952C5 21.9485 5.8529 19.8887 7.37214 18.3701C8.89071 16.853 10.9485 16 13.0952 16H74.619C76.7658 16 78.8236 16.8536 80.3421 18.3701C81.8607 19.8887 82.7143 21.9479 82.7143 24.0952V36.3739C81.68 35.9547 80.5914 35.6699 79.4762 35.5304V28.9523H8.23809V40.2856H67.7469C65.9153 42.5717 64.9049 45.4245 64.9049 48.3808V55.5307C65.8959 55.097 66.9916 54.8571 68.143 54.8571V48.3809C68.143 43.0157 72.4921 38.6666 77.8566 38.6666C83.2211 38.6666 87.5716 43.0157 87.5716 48.3809V54.8571C92.042 54.8571 95.6668 58.4819 95.6668 62.9523V79.1428C95.6668 80.4315 95.1551 81.6668 94.2437 82.5768C93.3322 83.4883 92.0969 84 90.8096 84H64.9049C63.6161 84 62.3808 83.4883 61.4708 82.5768C60.5594 81.6668 60.0476 80.4316 60.0476 79.1428L60.0476 67.8095ZM87.5714 58.0952H68.1428C65.4598 58.0952 63.2857 60.2694 63.2857 62.9524V79.1428C63.2857 79.5722 63.4556 79.9849 63.7598 80.2877C64.0627 80.592 64.4754 80.7619 64.9047 80.7619H90.8095C91.2388 80.7619 91.6501 80.592 91.9544 80.2877C92.2572 79.9849 92.4285 79.5722 92.4285 79.1428V62.9524C92.4285 60.2694 90.2522 58.0952 87.5714 58.0952ZM84.3333 54.8571V48.3809C84.3333 44.8046 81.4335 41.9048 77.8564 41.9048C74.2793 41.9048 71.3809 44.8046 71.3809 48.3809V54.8571H84.3333Z" fill="#A4A4A4"/>
</svg>
