<svg width="100" height="100" viewBox="0 0 100 100" fill="none" xmlns="http://www.w3.org/2000/svg">
<rect width="100" height="100" fill="white"/>
<path d="M82.1621 23.0568L50.9472 8.31704C50.0498 7.89432 49.0104 7.89432 48.1129 8.31704L16.8981 23.0568C16.3293 23.3263 15.8492 23.752 15.514 24.2847C15.1788 24.8168 15.002 25.4341 15.0044 26.0631V55.8734C14.8684 62.5813 17.9014 68.9606 23.1886 73.0897L47.5563 91.2065V91.2071C48.1303 91.6345 48.8274 91.8657 49.5427 91.8657C50.2587 91.8657 50.9558 91.6346 51.5292 91.2071L75.8969 73.0903V73.0897C81.1848 68.9606 84.2178 62.5813 84.0817 55.8734V26.0631C84.0817 25.4311 83.9014 24.8121 83.5609 24.2794C83.2203 23.7467 82.7349 23.3222 82.1614 23.0568L82.1621 23.0568ZM77.4341 55.8729C77.579 60.4926 75.5375 64.9097 71.9246 67.7918L49.5306 84.3331L27.1366 67.7253C23.5236 64.8431 21.4822 60.426 21.627 55.8063V28.1543L49.5303 14.9643L77.4335 28.2076L77.4341 55.8729Z" fill="#A4A4A4"/>
<path d="M49.5308 20.0901L26.2619 31.095V55.8729C26.1407 59.0034 27.4875 62.0109 29.9038 64.0046L49.5311 78.5988L69.1584 64.0312C71.5747 62.0376 72.9215 59.0301 72.8002 55.8995V31.0944L49.5308 20.0901ZM62.5755 44.3382L47.8885 59.0252C47.2695 59.6507 46.4252 60.0031 45.5449 60.0031C44.664 60.0031 43.8198 59.6507 43.2008 59.0252L36.4864 52.3108C35.6752 51.4683 35.3684 50.261 35.6793 49.1342C35.9897 48.0068 36.8718 47.127 37.9999 46.8196C39.1279 46.5122 40.3346 46.8226 41.1748 47.6361L45.5451 52.0064L57.888 39.6635H57.8874C58.7275 38.8499 59.9341 38.5395 61.0623 38.847C62.1905 39.1544 63.0724 40.0342 63.3828 41.1616C63.6938 42.2885 63.387 43.4964 62.5758 44.3382H62.5755Z" fill="#A4A4A4"/>
</svg>
