<svg width="23" height="23" viewBox="0 0 23 23" fill="none" xmlns="http://www.w3.org/2000/svg">
<path d="M7.6505 12.8028C7.87693 13.2535 8.16782 13.6664 8.52599 14.0322L8.52612 14.0323L9.00416 14.5193C9.3617 14.8849 9.76811 15.1849 10.2151 15.4203L7.67606 17.9091C6.94615 18.6235 5.77789 18.6158 5.07236 17.8953L5.0723 17.8952C4.73154 17.5476 4.54771 17.0855 4.55456 16.5921L7.6505 12.8028ZM7.6505 12.8028L5.11141 15.291C5.1114 15.291 5.11139 15.291 5.11138 15.2911C4.75933 15.6362 4.5616 16.0979 4.55456 16.5921L7.6505 12.8028ZM7.21671 9.53908L2.93508 13.7344C2.93507 13.7344 2.93506 13.7344 2.93505 13.7345C1.31101 15.3266 1.28427 17.9437 2.87636 19.5683L2.87639 19.5683L3.35428 20.0562L3.35429 20.0562C4.12149 20.8397 5.15241 21.277 6.25883 21.2887H6.30315C7.39341 21.2887 8.41614 20.8732 9.18884 20.1153L9.1889 20.1152L13.8078 15.5894C13.8078 15.5894 13.8079 15.5893 13.8079 15.5893C14.0654 15.3358 14.2819 15.0603 14.4524 14.7689L14.4534 14.7672C15.0814 13.7251 15.2123 12.4168 14.805 11.2676L14.8048 11.267C14.604 10.6937 14.2887 10.1859 13.8674 9.75518L7.21671 9.53908ZM7.21671 9.53908C7.0552 10.3307 7.08674 11.1604 7.31474 11.9427L4.51693 14.6844C4.51691 14.6844 4.5169 14.6845 4.51688 14.6845C4.00326 15.1874 3.71503 15.8605 3.7048 16.5802L3.85479 16.5824L3.7048 16.5802C3.69459 17.3011 3.96438 17.9803 4.46494 18.4903M7.21671 9.53908L4.46494 18.4903M4.46494 18.4903C4.98751 19.0235 5.68124 19.2909 6.37609 19.2909C7.05926 19.2909 7.74419 19.0326 8.27081 18.5162L12.2262 14.6404C12.7409 14.1363 13.0287 13.4597 13.0369 12.7361L13.0369 12.7361C13.0447 12.0178 12.7757 11.342 12.2785 10.8345L12.2784 10.8345C11.8913 10.44 11.3985 10.1917 10.8639 10.0945C10.9376 9.74006 11.1076 9.41694 11.3688 9.16043L4.46494 18.4903ZM12.1363 13.099C11.6011 13.0015 11.1079 12.7535 10.7218 12.3588C10.2257 11.8529 9.95658 11.1771 9.96332 10.4582L9.96332 10.4579C9.97154 9.73464 10.2593 9.05768 10.7734 8.55321L10.7735 8.55313L14.7298 4.677C14.7298 4.67698 14.7298 4.67697 14.7299 4.67696C15.7926 3.63511 17.4998 3.64578 18.5357 4.7029L18.4286 4.80789L18.5357 4.70291C19.5711 5.75963 19.5466 7.46678 18.4836 8.50874L18.4836 8.50876L15.6853 11.2507C15.9132 12.0322 15.9448 12.8615 15.7835 13.6529L20.0648 9.45829C20.0648 9.45828 20.0648 9.45827 20.0649 9.45826C21.6889 7.86612 21.7156 5.24835 20.1235 3.62382L20.1234 3.62375L19.6461 3.13609L12.1363 13.099ZM12.1363 13.099C12.0623 13.4537 11.8925 13.7769 11.6314 14.0325L11.6314 14.0326L10.8604 14.7884C10.391 14.5793 9.97043 14.2922 9.61153 13.9253L9.61137 13.9252L9.13322 13.4379C8.71118 13.0071 8.3963 12.499 8.19567 11.9264L8.19549 11.9259C7.78802 10.7759 7.91907 9.46803 8.5479 8.42544L8.54792 8.42545L8.54931 8.42305C8.7158 8.13511 8.93228 7.85937 9.19251 7.60315L13.8105 3.07689C13.8105 3.07689 13.8105 3.07688 13.8105 3.07687C15.4362 1.48412 18.0545 1.51218 19.6461 3.13602L12.1363 13.099ZM20.2532 2.54127L20.2532 2.54123C18.3331 0.580765 15.1757 0.549394 13.2156 2.46994L13.2156 2.46995L8.59683 6.99602L8.59665 6.9962C8.31084 7.27719 8.07047 7.58229 7.87685 7.899C7.55264 8.09008 7.243 8.32298 6.95979 8.60067L2.34066 13.1267L2.34065 13.1267C0.38132 15.047 0.349353 18.2037 2.26939 20.1635L2.26943 20.1635L2.74729 20.6508C3.6741 21.5967 4.91872 22.1245 6.25149 22.1385H6.25306H6.30373C7.61625 22.1385 8.85179 21.6363 9.78428 20.7223C9.78428 20.7223 9.78429 20.7222 9.78429 20.7222L14.4034 16.1957L14.4035 16.1957C14.6874 15.9172 14.9268 15.6114 15.1244 15.293C15.4477 15.1023 15.7569 14.869 16.0405 14.5909C16.0405 14.5909 16.0405 14.5909 16.0405 14.5909L20.6597 10.0649L20.6597 10.0649C22.6188 8.14442 22.6506 4.98826 20.7305 3.02893L20.2532 2.54127ZM13.3895 9.26852L13.8672 9.75499L11.3689 9.16033L12.1391 8.40542C12.6097 8.61468 13.0305 8.90174 13.3893 9.26834L13.3895 9.26852ZM11.3297 11.7637L11.3294 11.7635C11.1106 11.5404 10.9599 11.2661 10.8817 10.9649C11.1808 11.0492 11.4519 11.2055 11.671 11.4292C11.8903 11.6531 12.0412 11.9271 12.1193 12.2279C11.8193 12.1436 11.5481 11.9874 11.3297 11.7637ZM15.3495 10.3897C15.123 9.93837 14.8323 9.52518 14.4743 9.15985L14.4742 9.15973L13.9965 8.67327C13.9965 8.67326 13.9965 8.67325 13.9965 8.67324C13.6392 8.30799 13.232 8.00849 12.7845 7.77259L15.3238 5.28436C15.3238 5.28435 15.3238 5.28435 15.3238 5.28434C16.0538 4.56941 17.2231 4.57725 17.9274 5.29789L17.9276 5.29809C18.6337 6.01811 18.6179 7.18616 17.8881 7.90175L15.3495 10.3897Z" fill="white" stroke="white" stroke-width="0.3"/>
</svg>
