<svg width="20" height="21" viewBox="0 0 20 21" fill="none" xmlns="http://www.w3.org/2000/svg">
<path d="M1.54849 12.5268C0.557078 11.5624 0 10.2543 0 8.89023C0 7.5263 0.557078 6.21825 1.54849 5.2537L3.64073 3.21846C3.7269 3.13534 3.836 3.07847 3.95481 3.05461C4.04113 3.03655 4.1305 3.03655 4.21681 3.05461L4.88646 3.1963C4.90329 3.19912 4.92026 3.19376 4.9323 3.18205C4.95305 3.1637 4.96248 3.13604 4.95725 3.10923C4.89284 2.82191 4.81581 2.46783 4.81581 2.46783V2.46798C4.77142 2.26674 4.83481 2.05732 4.98424 1.91155L5.80359 1.11452H5.80374C6.02352 0.898602 6.32308 0.7771 6.63557 0.7771C6.94805 0.7771 7.24761 0.898605 7.4674 1.11452L10.1274 3.71016C10.349 3.92438 10.4734 4.21565 10.4734 4.51933C10.4734 4.82317 10.349 5.11445 10.1274 5.32865L9.3101 6.12568C9.16039 6.27117 8.9451 6.33284 8.73824 6.28952L8.05192 6.14783V6.14797C8.02755 6.21261 8.01696 6.28147 8.02073 6.3502C8.06802 6.56146 8.18481 6.75168 8.35352 6.89254L9.16463 7.56215C9.33393 7.70313 9.41328 7.92116 9.37252 8.1344C9.33161 8.34763 9.17711 8.52349 8.96689 8.59574C8.75668 8.66799 8.52283 8.62566 8.35351 8.48468L7.54036 7.80687H7.54022C7.16464 7.49118 6.90467 7.06515 6.7999 6.59308C6.72199 6.17014 6.8176 5.73434 7.06611 5.37914C7.19725 5.20401 7.37787 5.06938 7.58605 4.9919C7.79423 4.91428 8.02098 4.89706 8.23902 4.94222L8.66537 5.03127L9.19155 4.50714L6.63129 2.02482L6.1073 2.53667L6.17795 2.85222V2.85236C6.27355 3.2784 6.14038 3.72251 5.82441 4.03172C5.51192 4.34275 5.05683 4.475 4.62015 4.38184L4.2833 4.30493L2.43027 6.10748C1.72608 6.79277 1.30697 7.70707 1.25357 8.67462C1.20033 9.64213 1.5163 10.5947 2.14111 11.3494L2.40935 11.1471C2.26021 10.6874 2.24382 10.1967 2.36191 9.72864C2.48 9.26054 2.72807 8.83294 3.07902 8.4927C3.12893 8.44415 3.18028 8.39829 3.23294 8.35511C3.74489 7.94431 4.40206 7.74532 5.06331 7.80092C5.72442 7.85652 6.33676 8.16233 6.76864 8.65258L7.41333 9.37074C7.56 9.53416 7.60599 9.76124 7.53403 9.96655C7.46193 10.1717 7.28277 10.3241 7.06401 10.3661C6.84524 10.408 6.61994 10.3332 6.47328 10.1699L5.83684 9.46389C5.62155 9.21269 5.31355 9.05378 4.97901 9.02133C4.64462 8.98874 4.31037 9.08526 4.04824 9.28989L3.96512 9.3627C3.74649 9.57297 3.60215 9.84518 3.55239 10.1403C3.50278 10.4355 3.55036 10.7382 3.68847 11.0055C3.76638 11.157 3.78712 11.3306 3.74679 11.4956C3.70646 11.6605 3.60781 11.8065 3.46796 11.9076L2.50919 12.5995C2.36586 12.7025 2.18931 12.7522 2.01161 12.7395C1.8339 12.727 1.66663 12.6529 1.54014 12.5308L1.54849 12.5268ZM16.1525 18.1532C15.8507 18.1472 15.5648 18.0207 15.3621 17.8032L12.2841 14.4387C12.1354 14.2764 11.9091 14.2036 11.6904 14.2476C11.4716 14.2917 11.2936 14.4459 11.2235 14.6522C11.1533 14.8586 11.2016 15.0856 11.3503 15.2479L14.4325 18.6124C14.8638 19.0803 15.4753 19.3535 16.1213 19.3669H16.1837C16.8223 19.3658 17.4332 19.1125 17.8764 18.665C18.3195 18.2175 18.5568 17.6142 18.5342 16.9933C18.5114 16.3725 18.2307 15.7871 17.756 15.3714L14.2973 12.3853C14.1305 12.2406 13.8971 12.1936 13.685 12.2619C13.4729 12.3302 13.3143 12.5032 13.2691 12.716C13.2238 12.9288 13.2987 13.149 13.4654 13.2936L16.924 16.2757C17.1493 16.4737 17.2812 16.7526 17.2892 17.0479C17.297 17.3431 17.1801 17.6284 16.9657 17.8374C16.7524 18.0495 16.4572 18.1641 16.1525 18.1531L16.1525 18.1532ZM19.9792 5.96179C20.0985 7.1396 19.7 8.31159 18.8821 9.18781C18.0642 10.064 16.9033 10.5626 15.6866 10.5603C15.5763 10.5603 15.464 10.5603 15.3538 10.5482H15.3539C14.8965 10.5076 14.444 10.666 14.1184 10.9812L9.92959 15.0617C9.60594 15.3789 9.441 15.818 9.47828 16.2635C9.57171 17.4277 9.16115 18.5769 8.34571 19.4339C7.53025 20.2909 6.38405 20.7778 5.18354 20.7771C5.04413 20.7771 4.90283 20.7771 4.76763 20.7569V20.7568C4.57628 20.7394 4.39394 20.669 4.24245 20.554C4.09085 20.4388 3.97653 20.2839 3.91285 20.1074C3.84727 19.9311 3.83465 19.7403 3.87629 19.5572C3.91778 19.3744 4.01207 19.2066 4.14786 19.0736L5.34788 17.9063C5.42884 17.8277 5.47424 17.721 5.47424 17.6099C5.47424 17.4987 5.42883 17.392 5.34788 17.3134L4.43699 16.4274C4.26653 16.2689 3.99801 16.2689 3.82754 16.4274L2.62953 17.5947H2.62967C2.44616 17.7732 2.19968 17.8772 1.94031 17.8853C1.68091 17.8934 1.42805 17.8051 1.23308 17.6384C1.03824 17.4718 0.915946 17.2391 0.890996 16.9877C0.76464 15.7543 1.20653 14.5298 2.0977 13.6439C2.98873 12.7579 4.23766 12.3014 5.50806 12.3973C5.9662 12.435 6.41811 12.2744 6.74337 11.9583L10.9322 7.8879C11.256 7.57066 11.4208 7.13162 11.3835 6.6861C11.2846 5.45114 11.7527 4.23695 12.6622 3.36976C13.5715 2.50272 14.829 2.07172 16.0962 2.19282C16.2877 2.21018 16.4701 2.2806 16.6216 2.39561C16.773 2.51077 16.8875 2.66572 16.9512 2.84225C17.0179 3.01992 17.0308 3.21255 16.9884 3.39727C16.9459 3.58185 16.85 3.75092 16.7119 3.88415L15.5119 5.05148C15.431 5.12994 15.3856 5.23663 15.3856 5.34783C15.3856 5.45903 15.431 5.56572 15.5119 5.64419L16.425 6.53027C16.5953 6.68889 16.8638 6.68889 17.0343 6.53027L18.2343 5.36294V5.36308C18.4178 5.18442 18.6643 5.08056 18.9237 5.07237C19.1831 5.06432 19.4359 5.15253 19.6308 5.31933C19.8257 5.48599 19.948 5.71871 19.973 5.9699L19.9792 5.96179ZM18.7313 6.58891L17.9098 7.38808C17.5951 7.69403 17.1683 7.86593 16.7234 7.86593C16.2783 7.86593 15.8516 7.69404 15.5368 7.38808L14.6259 6.50199C14.3119 6.19548 14.1355 5.78043 14.1355 5.34778C14.1355 4.91508 14.3119 4.50006 14.6259 4.19356L15.4475 3.3944V3.39454C14.6368 3.45338 13.8838 3.82383 13.3545 4.42401C12.8253 5.02418 12.5636 5.80474 12.6273 6.59303C12.6958 7.39501 12.3984 8.18586 11.8141 8.75569L7.62529 12.82C7.045 13.385 6.23928 13.674 5.42078 13.611H5.18373H5.18359C4.41092 13.6084 3.66585 13.8904 3.09818 14.4005C2.53067 14.9107 2.18264 15.6109 2.1243 16.3604L2.94584 15.5612C3.26051 15.2553 3.68731 15.0834 4.13238 15.0834C4.5773 15.0834 5.00414 15.2553 5.31877 15.5612L6.22982 16.4434C6.54376 16.7498 6.72016 17.1648 6.72016 17.5975C6.72016 18.0303 6.54375 18.4453 6.22982 18.7517L5.40828 19.5508C6.21879 19.493 6.97229 19.1234 7.50226 18.524C8.03223 17.9246 8.2951 17.1446 8.23255 16.3563C8.16727 15.5577 8.46438 14.7712 9.0457 14.2038L13.2346 10.129C13.8167 9.56158 14.6261 9.27227 15.4475 9.33802H15.6845C16.4552 9.3376 17.1971 9.05409 17.7621 8.54435C18.327 8.03449 18.6732 7.33609 18.7314 6.58855L18.7313 6.58891Z" fill="white"/>
</svg>
