<svg width="23" height="14" viewBox="0 0 23 14" fill="none" xmlns="http://www.w3.org/2000/svg">
<path d="M4.57764e-05 6.88851C4.57764e-05 6.03286 0.445164 5.32675 1.07817 5.07361C1.00098 4.84668 0.958378 4.59696 0.958378 4.33296C0.958378 3.25803 1.65983 2.4163 2.5556 2.4163H4.77404C5.673 1.23458 6.92385 0.499634 8.30558 0.499634H18.0486C19.3011 0.499634 20.4455 1.10393 21.3184 2.09685C21.9237 2.7853 22.3982 3.66039 22.6864 4.6524C22.8886 5.34888 23 6.10222 23 6.88851C23 10.4113 20.779 13.2774 18.0486 13.2774H8.30559C6.9239 13.2774 5.67301 12.5424 4.77405 11.3607H2.5556C1.65984 11.3607 0.958384 10.519 0.958384 9.44406C0.958384 9.18005 1.00099 8.9303 1.07817 8.70341C0.445173 8.45045 5.14984e-05 7.74416 5.14984e-05 6.88851H4.57764e-05ZM21.7222 6.88851C21.7222 4.07019 20.0744 1.77741 18.0486 1.77741H11.2732C12.4768 2.94393 13.2569 4.8009 13.2569 6.88851C13.2569 8.97612 12.477 10.8332 11.2732 11.9996H18.0486C20.0744 11.9996 21.7222 9.70682 21.7222 6.88851ZM1.59727 7.84684C1.94362 7.84684 2.23615 7.40778 2.23615 6.88851C2.23615 6.36887 1.94362 5.93018 1.59727 5.93018C1.25091 5.93018 0.958378 6.36888 0.958378 6.88851C0.958378 7.40779 1.25091 7.84684 1.59727 7.84684ZM1.91671 9.44406C1.91671 9.96334 2.20924 10.4024 2.5556 10.4024C2.90195 10.4024 3.19448 9.96333 3.19448 9.44406C3.19448 8.92479 2.90195 8.48573 2.5556 8.48573C2.20924 8.48573 1.91671 8.92479 1.91671 9.44406ZM10.8611 3.37463H5.49174C5.65307 3.64202 5.74986 3.97304 5.74986 4.33296C5.74986 4.69198 5.6536 5.02264 5.49281 5.28969C6.38177 5.28078 7.86281 5.07382 9.58319 4.78342C10.2066 4.67842 10.8608 4.56237 11.5293 4.44098C11.373 4.04364 11.1776 3.68016 10.9541 3.35574C10.9241 3.36519 10.894 3.37463 10.861 3.37463L10.8611 3.37463ZM11.9792 6.88851C11.9792 6.24141 11.8888 5.62447 11.7305 5.0544C10.9843 5.19006 10.2629 5.31841 9.58335 5.43231C8.36029 5.63785 7.27414 5.79721 6.4178 5.876C6.59927 6.15178 6.70836 6.5044 6.70836 6.88855C6.70836 7.21976 6.62708 7.52762 6.48857 7.78322C7.33085 7.69944 8.40167 7.53847 9.58334 7.33899C10.3456 7.21047 11.1536 7.06572 11.9781 6.91509C11.9781 6.90617 11.9792 6.89744 11.9792 6.88853L11.9792 6.88851ZM3.83337 4.33296C3.83337 4.8526 4.1259 5.29129 4.47226 5.29129C4.81862 5.29129 5.11115 4.85259 5.11115 4.33296C5.11115 3.81333 4.81862 3.37463 4.47226 3.37463C4.1259 3.37463 3.83337 3.81333 3.83337 4.33296ZM4.47226 10.4024C4.81862 10.4024 5.11115 9.96333 5.11115 9.44406C5.11115 8.92479 4.81862 8.48573 4.47226 8.48573C4.1259 8.48573 3.83337 8.92479 3.83337 9.44406C3.83337 9.96333 4.1259 10.4024 4.47226 10.4024ZM6.06948 6.88851C6.06948 6.36887 5.77695 5.93018 5.43059 5.93018C5.08423 5.93018 4.7917 6.36888 4.7917 6.88851C4.7917 7.40779 5.08423 7.84684 5.43059 7.84684C5.77695 7.84684 6.06948 7.40778 6.06948 6.88851ZM3.51393 7.84684C3.86029 7.84684 4.15281 7.40778 4.15281 6.88851C4.15281 6.36887 3.86029 5.93018 3.51393 5.93018C3.16757 5.93018 2.87504 6.36888 2.87504 6.88851C2.87504 7.40779 3.16757 7.84684 3.51393 7.84684ZM9.58336 7.98784C7.86101 8.27716 6.40836 8.47627 5.49119 8.4843C5.65288 8.75205 5.75003 9.08381 5.75003 9.44405C5.75003 9.77651 5.66821 10.0853 5.5288 10.3412C6.58123 10.2418 8.00929 10.0296 9.58337 9.77134C10.1977 9.67063 10.833 9.56331 11.4786 9.45243C11.7166 8.88501 11.877 8.24955 11.9426 7.57123C11.1203 7.72168 10.3273 7.86286 9.58337 7.98782L9.58336 7.98784ZM2.5556 5.29128C2.90195 5.29128 3.19448 4.85258 3.19448 4.33295C3.19448 3.81332 2.90195 3.37462 2.5556 3.37462C2.20924 3.37462 1.91671 3.81332 1.91671 4.33295C1.91671 4.85258 2.20924 5.29128 2.5556 5.29128ZM10.9542 10.4211C11.0125 10.3368 11.0699 10.2514 11.1239 10.1614C10.6328 10.2451 10.1531 10.3257 9.68749 10.402L10.8612 10.4022C10.8941 10.4024 10.9243 10.4118 10.9542 10.4211L10.9542 10.4211ZM8.30563 2.73573H10.4391C9.83691 2.13518 9.10141 1.7774 8.30563 1.7774C7.50985 1.7774 6.77435 2.13517 6.1722 2.73573H8.30563ZM8.30563 11.9996C9.10141 11.9996 9.83691 11.6418 10.4392 11.0413H6.17202C6.77435 11.6418 7.50985 11.9996 8.30563 11.9996Z" fill="white"/>
</svg>
