<svg width="100" height="100" viewBox="0 0 100 100" fill="none" xmlns="http://www.w3.org/2000/svg">
<rect width="100" height="100" fill="white"/>
<path d="M90.1747 80.9471L94.9368 74.281C95.4339 73.5848 95.5 72.6687 95.1081 71.9079C94.717 71.1463 93.9331 70.6692 93.0776 70.6692H80.5151V63.8167C80.5151 62.6927 79.7017 61.7631 78.6319 61.5726C82.0773 56.1159 83.9412 49.759 83.9412 43.2603C83.9412 24.3688 68.5724 9 49.6809 9C30.7894 9 15.4206 24.3696 15.4206 43.2603C15.4206 49.7581 17.2846 56.1159 20.7299 61.5726C19.6601 61.7638 18.8467 62.6935 18.8467 63.8167V70.6692H6.28421C5.42866 70.6692 4.644 71.1463 4.25368 71.9079C3.86174 72.6686 3.92947 73.5847 4.42495 74.281L9.18713 80.9471L4.42495 87.6132C3.92787 88.3094 3.86175 89.2255 4.25368 89.9863C4.64482 90.7479 5.42866 91.2258 6.28421 91.2258H27.9824C29.2434 91.2258 30.2662 90.2022 30.2662 88.942V82.0895H69.0946V88.942C69.0946 90.203 70.1182 91.2258 71.3784 91.2258H93.0766C93.9322 91.2258 94.7168 90.7487 95.1071 89.9871C95.4991 89.2263 95.4313 88.3103 94.9359 87.614L90.1747 80.9471ZM23.414 77.5209V66.1008H59.6483H59.6515H59.6563H75.9477V77.5209H23.414ZM55.1537 50.5001C55.2326 51.3588 54.3666 51.9913 53.5716 51.6568L49.6811 50.015L45.7905 51.6576C44.9955 51.9929 44.1303 51.3596 44.2084 50.5009L44.5876 46.3688L41.8282 43.2605C41.2515 42.6097 41.5837 41.5781 42.432 41.3885L46.5321 40.4684L48.7021 36.8838C49.1466 36.1493 50.2116 36.1493 50.6561 36.8838L52.8262 40.4684L56.9262 41.3885C57.7746 41.5789 58.1068 42.6105 57.53 43.2605L54.7706 46.3688L55.1537 50.5001ZM49.681 13.5683C66.0544 13.5683 79.3733 26.889 79.3733 43.2606C79.3733 49.8795 77.1213 56.3184 73.0523 61.5331H66.939C71.9019 56.8715 74.8046 50.3488 74.8046 43.2599C74.8046 29.4061 63.5342 18.1357 49.6804 18.1357C35.8266 18.1357 24.5562 29.4061 24.5562 43.2599C24.5562 50.3482 27.4589 56.8715 32.421 61.5325H26.3077C22.2395 56.318 19.9875 49.8797 19.9875 43.2599C19.9875 26.8882 33.3066 13.5677 49.6798 13.5677L49.681 13.5683ZM25.6988 86.6569H10.7242L13.8541 82.2749C14.4205 81.4815 14.4205 80.4132 13.8541 79.6197L10.7242 75.2368H18.8471V79.8045C18.8471 81.0655 19.8708 82.0883 21.131 82.0883H25.6986L25.6988 86.6569ZM85.5095 82.2749L88.6395 86.6569H73.6649V82.0893H78.2325C79.4935 82.0893 80.5163 81.0657 80.5163 79.8055V75.2379H88.6393L85.5093 79.6199C84.943 80.4141 84.943 81.4808 85.5093 82.2751L85.5095 82.2749Z" fill="#A4A4A4"/>
</svg>
